<svg version="1.1" id="Layer_1" xmlns="http://www.w3.org/2000/svg" xmlns:xlink="http://www.w3.org/1999/xlink" x="0px" y="0px"
	 width="100%" viewBox="0 0 265 265" enable-background="new 0 0 265 265" xml:space="preserve">
<path fill="#F6F7F7" opacity="1.000000" stroke="none" 
	d="
M177.000000,266.000000 
	C118.000000,266.000000 59.500000,266.000000 1.000000,266.000000 
	C1.000000,177.666672 1.000000,89.333336 1.000000,1.000000 
	C89.333336,1.000000 177.666672,1.000000 266.000000,1.000000 
	C266.000000,89.333336 266.000000,177.666672 266.000000,266.000000 
	C236.500000,266.000000 207.000000,266.000000 177.000000,266.000000 
M91.845406,197.675049 
	C92.574387,198.075562 93.289421,198.504288 94.034355,198.872528 
	C122.143723,212.768463 149.424789,211.358566 174.290878,192.133041 
	C198.794342,173.187851 207.450577,147.378677 201.018936,117.151642 
	C194.552002,86.758789 169.407455,64.335747 137.517944,60.563004 
	C94.225380,55.441200 54.129345,89.053024 55.385788,136.249313 
	C56.086025,162.552734 68.616104,183.195374 91.845406,197.675049 
z"/>
<path fill="#1A79FF" opacity="1.000000" stroke="none" 
	d="
M91.544540,197.468185 
	C68.616104,183.195374 56.086025,162.552734 55.385788,136.249313 
	C54.129345,89.053024 94.225380,55.441200 137.517944,60.563004 
	C169.407455,64.335747 194.552002,86.758789 201.018936,117.151642 
	C207.450577,147.378677 198.794342,173.187851 174.290878,192.133041 
	C149.424789,211.358566 122.143723,212.768463 94.034355,198.872528 
	C93.289421,198.504288 92.574387,198.075562 91.544540,197.468185 
M182.782074,106.853699 
	C182.376175,106.127602 181.968262,105.402626 181.564697,104.675240 
	C166.747589,77.969490 133.653259,66.655266 105.699112,78.738861 
	C77.101509,91.100601 62.547478,122.942497 72.061737,152.332123 
	C82.730644,185.288498 119.473801,202.554642 151.481689,189.652710 
	C183.891586,176.588745 198.352127,138.982056 182.782074,106.853699 
z"/>
<path fill="#F4F6F7" opacity="1.000000" stroke="none" 
	d="
M182.916443,107.203209 
	C198.352127,138.982056 183.891586,176.588745 151.481689,189.652710 
	C119.473801,202.554642 82.730644,185.288498 72.061737,152.332123 
	C62.547478,122.942497 77.101509,91.100601 105.699112,78.738861 
	C133.653259,66.655266 166.747589,77.969490 181.564697,104.675240 
	C181.968262,105.402626 182.376175,106.127602 182.916443,107.203209 
M133.256577,175.119888 
	C138.038345,173.799881 143.017471,172.951889 147.557480,171.053650 
	C155.126511,167.888947 161.443085,162.992004 164.039261,154.734512 
	C164.562103,153.071564 164.508545,150.389999 163.504166,149.319565 
	C162.497696,148.246918 159.927536,148.206726 158.114822,148.397812 
	C148.382004,149.423843 138.672394,151.565231 128.953384,151.573013 
	C119.401138,151.580643 109.818901,149.685349 100.305298,148.255936 
	C95.093895,147.472916 92.670105,149.398590 94.290924,154.394867 
	C95.236084,157.308395 96.868782,160.269196 98.953514,162.495911 
	C107.947685,172.102753 119.322517,175.879929 133.256577,175.119888 
M144.358994,124.880630 
	C148.416534,129.284988 152.583359,130.521561 156.591675,128.180222 
	C160.345291,125.987686 162.323318,122.698273 161.300598,118.202377 
	C160.089294,112.877380 155.176727,109.866554 149.979095,111.134056 
	C144.351532,112.506401 142.042175,117.548599 144.358994,124.880630 
M115.050995,121.217003 
	C114.807083,114.243889 110.802429,110.298233 104.670021,110.988960 
	C99.538422,111.566956 95.975540,116.358391 96.922661,121.706787 
	C97.666412,125.906685 100.353622,128.408661 104.550346,129.077759 
	C109.416664,129.853622 112.505821,127.692970 115.050995,121.217003 
z"/>
<path fill="#1979FF" opacity="1.000000" stroke="none" 
	d="
M132.788025,175.150131 
	C119.322517,175.879929 107.947685,172.102753 98.953514,162.495911 
	C96.868782,160.269196 95.236084,157.308395 94.290924,154.394867 
	C92.670105,149.398590 95.093895,147.472916 100.305298,148.255936 
	C109.818901,149.685349 119.401138,151.580643 128.953384,151.573013 
	C138.672394,151.565231 148.382004,149.423843 158.114822,148.397812 
	C159.927536,148.206726 162.497696,148.246918 163.504166,149.319565 
	C164.508545,150.389999 164.562103,153.071564 164.039261,154.734512 
	C161.443085,162.992004 155.126511,167.888947 147.557480,171.053650 
	C143.017471,172.951889 138.038345,173.799881 132.788025,175.150131 
z"/>
<path fill="#1C7AFF" opacity="1.000000" stroke="none" 
	d="
M144.180573,124.532310 
	C142.042175,117.548599 144.351532,112.506401 149.979095,111.134056 
	C155.176727,109.866554 160.089294,112.877380 161.300598,118.202377 
	C162.323318,122.698273 160.345291,125.987686 156.591675,128.180222 
	C152.583359,130.521561 148.416534,129.284988 144.180573,124.532310 
z"/>
<path fill="#1A79FF" opacity="1.000000" stroke="none" 
	d="
M115.014488,121.620026 
	C112.505821,127.692970 109.416664,129.853622 104.550346,129.077759 
	C100.353622,128.408661 97.666412,125.906685 96.922661,121.706787 
	C95.975540,116.358391 99.538422,111.566956 104.670021,110.988960 
	C110.802429,110.298233 114.807083,114.243889 115.014488,121.620026 
z"/>
</svg>